<mxfile host="app.diagrams.net" modified="2023-09-28T15:51:01.750Z" agent="Mozilla/5.0 (Windows NT 10.0; Win64; x64) AppleWebKit/537.36 (KHTML, like Gecko) Chrome/117.0.0.0 Safari/537.36" version="22.0.0" etag="8NkyzKjGX0BLrK-iflmj" type="github">
  <diagram name="Trang-1" id="BiE6Tl7VMVEQ3Ow1Iqmr">
    <mxGraphModel>
      <root>
        <mxCell id="0" />
        <mxCell id="1" parent="0" />
      </root>
    </mxGraphModel>
  </diagram>
</mxfile>
